<?xml version="1.0" standalone="no"?>
<!DOCTYPE svg PUBLIC "-//W3C//DTD SVG 20010904//EN"
 "http://www.w3.org/TR/2001/REC-SVG-20010904/DTD/svg10.dtd">
<svg version="1.0" xmlns="http://www.w3.org/2000/svg"
 width="706.000000pt" height="120.000000pt" viewBox="0 0 706.000000 120.000000"
 preserveAspectRatio="xMidYMid meet">

<g transform="translate(0.000000,120.000000) scale(0.100000,-0.100000)"
fill="#000000" stroke="none">
<path d="M832 1188 c-7 -7 -12 -30 -12 -52 0 -23 -3 -58 -6 -78 -6 -33 -10
-38 -33 -38 -25 -1 -25 -1 -7 -15 38 -29 29 -57 -26 -79 -41 -17 -42 -16 -68
40 -14 34 -22 42 -38 37 -11 -2 -29 0 -41 7 -17 8 -21 8 -19 -2 2 -8 -8 -14
-27 -14 -25 -2 -26 -1 -4 3 21 3 25 9 22 27 -3 13 2 28 12 36 14 12 19 10 38
-11 12 -13 19 -20 15 -15 -5 6 -8 20 -8 33 0 30 -33 31 -54 1 -9 -12 -16 -19
-16 -15 0 4 -6 3 -12 -3 -7 -6 -22 -17 -33 -24 -16 -11 -17 -17 -7 -29 10 -12
9 -15 -7 -20 -11 -2 -24 0 -30 6 -9 9 -16 8 -29 0 -15 -9 -21 -7 -29 6 -15 23
-7 34 43 59 22 11 46 27 53 36 23 28 -93 -35 -122 -66 -27 -29 -48 -33 -31 -7
4 7 8 24 9 37 l1 24 -24 -27 c-13 -15 -26 -25 -29 -21 -3 3 2 15 12 26 10 11
13 20 7 20 -15 0 -39 -37 -47 -72 -8 -31 -35 -38 -35 -10 0 10 8 29 17 42 l17
25 -22 -19 c-12 -11 -22 -25 -22 -32 0 -7 -10 -20 -21 -28 -19 -13 -24 -13
-45 1 -22 14 -24 14 -24 -1 0 -11 -5 -13 -17 -9 -17 7 -17 6 0 -20 18 -27 11
-37 -11 -15 -9 9 -12 9 -12 1 0 -7 6 -15 12 -20 19 -11 -53 -23 -73 -12 -14 7
-16 5 -12 -14 3 -12 12 -30 20 -39 13 -15 13 -20 -6 -47 -12 -16 -21 -44 -20
-63 0 -30 1 -31 9 -10 8 20 12 21 30 10 18 -11 23 -10 34 5 15 20 36 23 36 5
0 -9 3 -9 12 0 8 8 8 15 -2 27 -10 12 -10 15 0 15 19 0 39 -32 40 -63 0 -32
-39 -54 -69 -37 -26 13 -35 0 -11 -17 16 -11 18 -18 8 -38 -6 -13 -15 -22 -20
-19 -5 3 -18 -2 -28 -11 -27 -24 -50 -12 -51 27 l-1 33 -10 -38 c-13 -47 -4
-58 51 -64 36 -3 42 -1 50 20 5 13 28 45 50 71 23 26 41 56 41 66 0 20 37 47
48 35 13 -13 9 -60 -9 -115 -21 -66 -98 -208 -145 -269 -19 -24 -34 -49 -34
-55 0 -6 5 -3 11 7 13 22 39 22 39 0 0 -13 12 -6 40 25 22 23 40 51 40 63 0
25 42 99 71 125 12 10 28 32 36 47 9 18 20 27 29 23 8 -3 23 7 36 24 l21 29
14 -25 c7 -15 13 -34 13 -44 0 -19 -23 -43 -33 -34 -7 8 -67 -27 -67 -39 0 -5
8 -3 17 4 15 12 16 12 10 -4 -4 -11 -2 -17 6 -15 16 3 87 -44 87 -58 0 -6 -10
-40 -21 -75 -12 -35 -28 -89 -36 -119 -17 -67 -51 -121 -111 -177 -24 -23 -41
-46 -38 -52 9 -14 53 -14 61 0 4 6 13 8 20 5 13 -5 190 166 208 201 19 36 53
66 97 86 25 12 48 23 53 25 4 2 7 -5 7 -15 0 -15 2 -16 10 -3 6 9 10 10 10 3
0 -7 12 -18 28 -25 43 -21 83 -106 94 -202 10 -83 18 -103 37 -92 7 5 4 19 -9
44 -11 20 -20 54 -20 75 0 20 -11 64 -24 97 -14 33 -19 57 -13 54 7 -4 26 -16
42 -27 l30 -20 -28 28 c-34 32 -27 48 6 17 20 -19 31 -21 71 -16 45 7 75 33
48 42 -7 2 -10 7 -8 11 2 3 -13 5 -34 3 -21 -2 -41 1 -44 7 -4 6 -1 11 6 11 7
1 -14 10 -47 22 -65 23 -84 39 -57 50 12 5 10 7 -10 7 -20 1 -28 -4 -28 -16 0
-9 -2 -14 -4 -12 -2 2 0 47 4 99 6 78 5 98 -8 112 -8 10 -19 15 -25 11 -6 -4
-7 -1 -3 6 5 7 1 20 -7 29 -9 9 -20 29 -26 43 -9 26 -8 27 37 39 26 7 63 21
83 31 47 23 110 96 102 117 -4 10 -2 13 5 8 8 -5 12 0 12 14 0 12 -4 19 -9 16
-10 -6 -37 52 -28 60 10 10 27 -7 27 -27 0 -12 7 -19 19 -19 25 0 34 25 15 41
-8 7 -12 20 -8 31 6 21 -8 43 -39 60 -18 9 -19 8 -13 -17 4 -15 3 -24 -2 -21
-5 3 -10 45 -11 92 0 48 -2 89 -4 90 -2 2 -9 -2 -15 -8z m-175 -233 c-7 -17
-42 -21 -52 -5 -3 5 0 7 8 4 8 -3 20 2 27 11 15 18 25 13 17 -10z m42 -42 c18
-14 18 -14 -21 -17 -34 -2 -43 18 -20 45 16 18 17 18 21 2 2 -10 11 -23 20
-30z m-236 -14 c21 -6 41 -17 44 -25 3 -8 1 -43 -4 -79 -8 -51 -7 -68 4 -76
20 -17 16 -29 -11 -29 -25 0 -51 22 -39 33 3 4 -1 7 -9 7 -9 0 -18 -8 -21 -19
-6 -24 -57 -35 -58 -12 -1 9 -1 19 0 24 0 4 -5 7 -11 7 -9 0 -8 4 2 10 9 6 11
10 3 10 -7 0 -10 7 -6 16 5 14 3 15 -15 5 -27 -15 -53 -14 -27 1 11 7 27 18
35 27 13 13 13 14 -2 8 -10 -3 -20 -2 -22 2 -11 17 -67 20 -107 6 -53 -19 -72
-8 -56 34 22 59 168 83 300 50z m297 1 c0 -12 -33 -30 -56 -30 -16 0 -16 1 1
20 19 21 55 27 55 10z m-610 -29 c0 -5 -7 -12 -16 -15 -14 -5 -15 -4 -4 9 14
17 20 19 20 6z m720 -6 c10 -12 10 -15 -3 -15 -8 0 -28 -15 -45 -34 l-30 -34
-6 30 c-8 39 0 51 25 37 17 -9 21 -7 26 10 6 25 16 27 33 6z m-282 -41 c7 4
12 2 12 -3 0 -6 -6 -11 -14 -11 -27 0 -45 12 -39 26 4 12 7 12 18 -2 6 -9 17
-14 23 -10z m187 -16 c9 -37 -6 -36 -27 1 -12 21 -13 31 -5 34 16 6 24 -3 32
-35z m-660 -37 c-7 -7 -21 -11 -30 -7 -20 7 -17 46 5 63 22 17 45 -35 25 -56z
m604 30 c-15 -5 -22 6 -14 19 6 9 10 9 16 -1 5 -8 4 -15 -2 -18z m-451 -18
c-10 -2 -28 -2 -40 0 -13 2 -5 4 17 4 22 1 32 -1 23 -4z m482 -7 c0 -14 -29
-30 -38 -21 -3 3 0 5 7 5 8 0 11 7 7 15 -3 9 0 15 9 15 8 0 15 -6 15 -14z
m-118 -88 c43 -48 48 -77 19 -124 l-19 -32 -67 23 c-37 13 -69 26 -72 29 -8 8
30 66 44 66 7 0 13 11 13 24 0 14 5 28 11 32 8 5 6 10 -5 16 -9 5 -21 6 -26 3
-5 -3 -7 0 -4 9 9 24 63 1 106 -46z m-148 -57 c3 -4 -4 -17 -15 -27 -21 -19
-21 -18 -8 9 13 30 15 31 23 18z m-393 -54 c-8 -8 -11 -7 -11 4 0 20 13 34 18
19 3 -7 -1 -17 -7 -23z m464 -47 c-7 -11 -95 2 -95 14 0 29 22 34 60 12 21
-11 37 -23 35 -26z m127 18 c-8 -8 -9 -4 -5 13 4 13 8 18 11 10 2 -7 -1 -18
-6 -23z m42 16 c5 -14 4 -15 -9 -4 -17 14 -19 20 -6 20 5 0 12 -7 15 -16z
m-494 -34 c-15 -28 -24 -19 -16 16 5 19 10 24 17 17 8 -8 7 -18 -1 -33z m478
-117 c-15 -32 -58 -57 -72 -43 -6 6 -16 10 -22 10 -18 0 -97 -78 -124 -123
-12 -21 -24 -36 -27 -33 -7 7 68 149 96 180 l26 29 -27 -18 c-38 -24 -35 -14
3 14 18 13 29 19 25 12 -10 -16 -1 -14 52 13 28 14 54 36 62 53 l15 28 3 -47
c2 -27 -3 -60 -10 -75z m-518 60 c0 -5 -7 -16 -15 -26 -7 -11 -11 -25 -9 -31
3 -7 -2 -13 -11 -13 -19 0 -19 12 2 48 16 27 33 39 33 22z m-60 -113 c0 -5 -7
-10 -15 -10 -8 0 -15 5 -15 10 0 6 7 10 15 10 8 0 15 -4 15 -10z m350 -69 c0
-5 -9 -19 -20 -32 l-21 -24 16 33 c15 31 25 41 25 23z m-63 -149 c-15 -15 -38
-39 -51 -54 -30 -33 -42 -35 -56 -8 -9 16 -5 26 26 57 l36 38 -7 -29 -6 -28
37 31 c45 36 59 32 21 -7z"/>
<path d="M326 105 c-11 -8 -15 -15 -9 -15 6 0 16 7 23 15 16 19 11 19 -14 0z"/>
<path d="M3523 1006 c-80 -20 -156 -62 -212 -117 -195 -196 -142 -542 104
-667 138 -69 329 -70 470 -2 229 111 297 441 131 642 -104 127 -312 188 -493
144z m264 -64 c62 -32 111 -87 147 -161 26 -57 31 -80 34 -166 3 -83 0 -111
-18 -164 -27 -82 -69 -143 -123 -179 -59 -41 -99 -52 -181 -52 -126 0 -221 64
-279 188 -61 130 -45 328 36 433 41 54 94 97 143 115 58 21 187 14 241 -14z"/>
<path d="M5515 1002 c-120 -41 -194 -107 -249 -222 -29 -62 -31 -71 -31 -185
0 -114 2 -123 32 -187 42 -90 110 -161 192 -201 63 -30 72 -32 181 -32 108 0
119 2 180 31 68 32 149 106 201 180 25 37 27 43 13 55 -13 11 -19 8 -42 -22
-46 -60 -113 -118 -171 -146 -49 -24 -68 -28 -146 -28 -81 0 -95 3 -143 29
-125 70 -188 229 -163 413 20 144 86 240 188 274 59 19 173 7 227 -25 54 -32
109 -101 133 -168 10 -27 24 -48 31 -48 8 0 12 6 8 15 -3 8 -8 66 -12 130 -6
107 -9 116 -28 119 -208 40 -323 45 -401 18z"/>
<path d="M6460 1002 c-171 -46 -282 -166 -312 -339 -30 -177 57 -360 208 -436
202 -102 469 -64 601 87 127 144 135 379 19 537 -41 55 -138 122 -210 145 -77
25 -227 28 -306 6z m275 -59 c60 -31 114 -90 149 -163 29 -62 31 -71 31 -185
0 -113 -2 -124 -31 -185 -42 -88 -74 -123 -146 -159 -52 -27 -72 -31 -138 -31
-135 0 -224 61 -288 197 -25 53 -27 68 -27 178 0 109 2 125 26 176 43 90 120
165 197 190 48 15 183 5 227 -18z"/>
<path d="M1598 1003 c-87 -2 -148 -8 -148 -13 0 -6 9 -10 20 -10 34 0 76 -27
89 -58 8 -20 11 -118 9 -346 l-3 -318 -28 -24 c-16 -14 -41 -24 -58 -24 -16 0
-29 -4 -29 -9 0 -4 118 -12 263 -15 247 -7 266 -6 327 13 129 40 178 136 134
264 -17 51 -86 122 -128 133 -33 8 -32 15 6 39 49 31 71 68 76 129 6 76 -24
138 -87 177 -92 59 -166 69 -443 62z m326 -77 c55 -42 76 -81 76 -145 0 -104
-65 -161 -183 -161 -35 0 -78 5 -96 11 l-31 11 0 152 c0 84 3 156 8 160 4 4
48 6 98 4 82 -3 94 -6 128 -32z m-77 -341 c115 0 123 -1 148 -25 93 -86 84
-240 -16 -307 -38 -25 -51 -28 -128 -28 -47 0 -103 6 -123 13 l-38 14 0 175
c0 163 1 175 18 167 9 -4 72 -8 139 -9z"/>
<path d="M2433 1003 c-84 -2 -143 -8 -143 -13 0 -6 11 -10 25 -10 15 0 39 -7
55 -15 47 -24 51 -62 48 -394 -3 -339 -5 -345 -78 -357 -92 -15 -40 -24 134
-24 117 0 186 4 186 10 0 6 -11 10 -25 10 -34 0 -81 25 -90 47 -4 10 -10 86
-12 169 l-6 151 72 -13 c40 -6 73 -13 75 -15 1 -2 15 -26 31 -54 37 -66 85
-133 163 -227 l64 -78 114 0 c63 0 114 3 114 8 0 4 -22 15 -49 25 -59 21 -132
76 -187 143 -44 52 -134 183 -134 194 0 4 18 13 39 20 52 17 110 65 127 106
18 43 18 125 0 168 -20 49 -82 103 -145 127 -62 24 -140 28 -378 22z m282 -44
c52 -15 110 -74 124 -126 22 -81 -10 -167 -77 -206 -35 -21 -130 -28 -194 -14
l-38 8 0 63 c0 35 3 111 6 169 7 104 7 106 33 110 53 8 107 7 146 -4z"/>
<path d="M4180 991 c0 -5 15 -13 33 -16 17 -4 58 -20 90 -36 l57 -29 -1 -148
c-1 -81 -4 -225 -8 -320 l-6 -174 -28 -24 c-17 -14 -47 -26 -77 -30 -108 -14
-53 -24 134 -24 108 0 196 4 196 9 0 4 -21 11 -46 14 -54 6 -90 35 -104 86 -5
20 -10 156 -10 303 l0 266 59 -61 c147 -156 385 -451 467 -581 23 -36 35 -46
57 -46 l27 0 0 358 c0 338 1 359 20 389 15 25 32 36 65 45 25 7 45 16 45 20 0
4 -77 8 -171 8 -158 0 -204 -8 -129 -24 41 -8 85 -53 100 -102 7 -23 14 -130
17 -269 3 -209 2 -228 -12 -210 -8 11 -122 151 -252 312 l-238 292 -142 1
c-81 0 -143 -4 -143 -9z"/>
<path d="M21 684 c0 -11 3 -14 6 -6 3 7 2 16 -1 19 -3 4 -6 -2 -5 -13z"/>
<path d="M277 512 c-26 -29 -49 -100 -27 -87 6 4 7 -5 4 -23 -4 -17 -1 -32 5
-36 7 -5 11 2 11 16 0 13 14 44 32 69 17 24 26 39 18 32 -9 -9 -19 -9 -32 -2
-19 10 -19 12 -2 30 9 10 15 19 12 19 -3 0 -12 -8 -21 -18z"/>
<path d="M214 368 c-10 -24 -29 -58 -43 -76 -20 -28 -22 -35 -10 -43 8 -5 19
-9 26 -9 14 0 43 27 43 40 0 5 7 7 15 4 12 -5 15 2 15 30 0 23 -4 35 -12 34
-9 -2 -12 8 -12 30 1 17 1 32 -1 32 -1 0 -10 -19 -21 -42z m6 -58 c0 -14 -7
-20 -22 -20 -20 0 -21 1 -3 20 10 11 20 20 22 20 1 0 3 -9 3 -20z"/>
</g>
</svg>
